<?xml version="1.0" encoding="utf-8"?>
<!-- Generator: Adobe Illustrator 14.0.0, SVG Export Plug-In . SVG Version: 6.00 Build 43363)  -->
<!DOCTYPE svg PUBLIC "-//W3C//DTD SVG 1.1//EN" "http://www.w3.org/Graphics/SVG/1.1/DTD/svg11.dtd">
<svg version="1.1" id="a" xmlns="http://www.w3.org/2000/svg" xmlns:xlink="http://www.w3.org/1999/xlink" x="0px" y="0px"
	 width="634.327px" height="131px" viewBox="82.764 234.25 634.327 131" enable-background="new 82.764 234.25 634.327 131"
	 xml:space="preserve">
<g>
	<path d="M184.778,236.123h-57.46c-12.25,0.51-16.115,8.677-16.261,8.969l-0.146,0.364c-4.011,7.948-24.209,48.127-27.709,60.45
		c-0.365,1.386-0.51,2.698-0.438,3.865c0.146,1.313,0.583,2.479,1.385,3.573c2.698,3.719,8.604,4.958,9.334,5.104h0.948l0.875,0.146
		c0,0,0.729,0,1.458,0.072c29.532-0.072,48.856,0,56.002,0c10.136,0.146,15.896-4.156,18.448-6.708c0,0,0.875-1.021,1.24-1.604
		c0.51-0.802,1.313-2.261,1.313-2.261l10.719-22.386h-37.043l-0.365,0.802c-3.354,7.657-7.146,16.115-7.657,17.063l-0.219,0.438
		l-0.146,0.292c-0.292,0.729-0.656,1.604-1.75,2.333c-1.604,1.094-2.552,1.386-7.803,1.386c-3.427,0-7.219,0-8.458-1.604
		c-1.167-1.458-1.021-3.938,0.438-7.073l21.511-46.304l0.583-1.386c0.219-0.583,1.385-3.427,3.938-4.74
		c1.531-0.729,3.865-0.802,7.146-0.656c5.469,0.219,6.125,0.438,7.584,2.115c0.292,0.365,0.583,1.385,0.583,1.823l0,0
		c0,0,0.073,0.583-0.583,2.479c-0.146,0.438-0.438,1.094-0.438,1.094s-0.802,2.042-2.771,6.417l-0.875,1.969h38.501l0.364-0.875
		c1.021-2.188,3.136-8.75,3.719-10.719c0-0.146,0.219-1.021,0.219-1.021l0.292-1.313l0.146-1.458
		c-0.875-7.948-6.854-9.99-11.375-10.865l-1.823-0.146c0,0-3.208,0-3.281,0"/>
	<polygon points="405.141,274.187 398.724,289.135 438.174,289.135 444.371,274.187 	"/>
	<path d="M475.945,242.321l-2.552,2.479l-1.896,2.333l-2.407,4.083l-2.333,5.396l-2.261,5.615h33.616l4.011-8.75l1.239-2.333
		c0,0,0.583-1.021,0.729-1.24c0.802-1.385,1.75-2.625,4.083-3.208c0,0,1.021-0.219,2.261-0.219s4.083,0,4.083,0
		c4.667,0,6.782,0.292,7.729,2.115c0.438,0.875,0.656,1.604,0.656,2.406c0,0,0,0.802-0.291,1.896
		c-0.292,1.094-0.584,1.531-0.584,1.531s-4.886,11.448-5.104,11.959c-0.583,0-49.804,2.99-49.804,2.99
		c-10.281,0.219-13.125,8.094-13.198,8.167c-0.073,0.146-11.011,25.595-11.594,27.418c0-0.073-0.292,0.947-0.292,0.947L441.819,307
		v1.531c0.438,9.845,9.333,10.282,12.25,10.354h0.729c0,0,2.771,0,2.917,0c0,0,47.908,0.073,53.085,0
		c4.886-0.072,11.667-1.313,15.751-3.864c4.667-2.917,6.563-6.928,7-8.094c0.948-2.188,23.407-53.961,23.699-55.055
		c0,0,0-0.146,0.146-0.438c0.073-0.292,0.292-0.948,0.292-1.24c0-0.364,0,0.073,0.146-1.167v-0.802l-0.073-1.969
		c-0.656-6.782-7.364-9.625-11.667-9.844l-3.791-0.146c0,0-0.876,0-1.896,0h-48.346c-5.396,0-11.011,2.114-16.261,6.198
		 M510.655,277.395c0,0,0.292,0,0.656,0c-0.438,0.948-1.386,2.99-1.386,2.99s-10.136,23.043-12.031,24.793
		c-2.188,2.041-2.917,2.041-8.24,2.041h-3.5c-2.042,0-3.5-0.51-4.303-1.458c-0.875-0.948-0.947-2.188-0.947-2.698
		c0,0,0.072-0.656,0.146-1.094s0.656-2.188,0.656-2.333c0.219-0.438,1.167-2.698,6.053-14.438l0.291-0.51
		c2.771-5.688,7.803-6.198,8.313-6.271l14.438-0.948"/>
	<path d="M218.613,242.321l-2.552,2.479l-1.896,2.333l-2.333,4.083l-2.333,5.396l-2.26,5.615h33.616l4.011-8.75l1.24-2.333
		c0,0,0.583-1.021,0.729-1.24c0.802-1.385,1.75-2.625,4.011-3.208c0,0,1.021-0.219,2.26-0.219s4.083,0,4.083,0
		c4.667,0,6.782,0.292,7.729,2.115c0.511,0.875,0.729,1.604,0.729,2.406c0,0,0,0.802-0.292,1.896
		c-0.292,1.094-0.583,1.531-0.583,1.531s-4.885,11.448-5.104,11.959c-0.583,0-49.804,2.99-49.804,2.99
		c-10.282,0.219-13.125,8.094-13.198,8.167c-0.073,0.146-11.011,25.595-11.521,27.418c0-0.073-0.292,0.947-0.292,0.947L184.632,307
		v1.531c0.438,9.845,9.333,10.282,12.25,10.354h0.729c0,0,2.771,0,2.917,0c0,0,47.908,0.073,53.085,0
		c4.885-0.072,11.667-1.313,15.75-3.864c4.667-2.917,6.563-6.928,7-8.094c0.948-2.188,23.407-53.961,23.699-55.055
		c0,0,0-0.146,0.146-0.438c0.073-0.292,0.292-0.948,0.292-1.24c0-0.364,0,0.073,0.146-1.167v-0.802l-0.073-1.969
		c-0.656-6.782-7.365-9.625-11.667-9.844l-3.792-0.146c0,0-0.875,0-1.969,0h-48.346c-5.396,0-11.011,2.114-16.261,6.198
		 M253.396,277.395c0,0,0.292,0,0.656,0c-0.438,0.948-1.386,2.99-1.386,2.99s-10.136,23.043-12.032,24.793
		c-2.188,2.041-2.917,2.041-8.24,2.041h-3.5c-1.969,0-3.427-0.51-4.302-1.458c-0.875-0.948-0.948-2.188-0.948-2.698
		c0,0,0-0.656,0.146-1.094c0.073-0.438,0.583-2.188,0.656-2.333c0.219-0.438,1.167-2.698,6.052-14.438l0.292-0.51
		c2.844-5.688,7.803-6.198,8.313-6.271l14.438-0.948"/>
	<path d="M376.119,236.56l-1.021,0.219l-4.083,0.948c-10.719,2.188-14.219,2.552-15.824,2.625c-0.365,0-0.438,0-0.583-0.292
		c-0.219-0.219-0.146-0.219-0.219-0.438c0-0.219,0-0.365,0-0.365v-3.135h-35.876l-36.314,82.618h35.584
		c0,0,28.512-63.002,28.657-63.221c0.146-0.292,0.438-0.875,1.167-1.969c0.875-1.313,2.479-2.698,7.875-2.698h1.677
		c3.063,0,6.49-0.073,7.875,1.604c0.729,0.875,1.021,1.458,0.948,3.135c0,0.802-0.438,2.333-1.021,3.792l-26.251,59.356h35.949
		l27.564-63.95c0.583-1.313,1.969-4.813,1.677-8.094c-0.364-3.573-2.188-6.417-5.469-8.386c-8.896-5.323-20.855-2.333-22.168-1.896"
		/>
	<path d="M689.818,236.269l-26.251,6.125c-0.729,0.219-2.188,0.656-3.208,0.583c-0.146-0.219-0.365-0.511-0.803-1.021l-0.51-0.656
		c-0.875-1.167-1.969-2.042-3.209-2.844c-8.896-5.323-20.854-2.333-22.167-1.896l-4.376,1.094
		c-10.063,2.042-14.364,2.625-16.261,2.771c-0.583,0-0.802,0-1.021-0.146c-0.219-0.219-0.219-0.802-0.219-0.802v-3.208h-35.877
		l-36.313,82.69h35.585l28.584-63.221c0,0,0.511-0.875,1.167-1.969c0.875-1.313,2.479-2.698,7.875-2.625h1.678
		c3.063,0,6.489-0.073,7.948,1.604c0.729,0.875,1.021,1.458,0.947,3.136c0,0.802-0.438,2.333-1.021,3.792l-26.251,59.357h35.949
		c0,0,24.646-57.023,26.98-62.127l0.947-1.969c1.459-2.625,4.303-3.938,8.459-3.865h1.604c3.063,0,6.563-0.146,8.239,1.532
		c0.875,0.875,0.948,1.385,0.948,2.552c0,1.021-0.073,1.458-0.875,3.719l-0.656,1.677L651.9,319.104h35.949l27.782-64.314
		c0.803-1.677,1.459-4.521,1.313-7.219c-0.072-2.188-0.583-6.271-4.813-8.75c-9.115-5.469-21.876-2.479-22.459-2.406"/>
	<path d="M702.726,306.563c3.5,0,6.636,2.479,6.636,6.417s-3.136,6.49-6.636,6.49s-6.636-2.553-6.636-6.49
		S699.226,306.563,702.726,306.563 M702.726,318.084c2.698,0,4.886-2.114,4.886-5.104c0-2.989-2.188-5.031-4.886-5.031
		s-4.886,2.114-4.886,5.031S700.027,318.084,702.726,318.084 M700.173,309.406h2.698c1.823,0,2.844,0.584,2.844,2.115
		c0,1.313-0.802,1.823-1.896,1.896l1.896,3.136h-1.458l-1.75-3.063h-0.875v3.063h-1.459v-7.219V309.406z M701.632,312.396h1.239
		c0.803,0,1.386-0.146,1.386-1.021c0-0.802-0.802-0.875-1.458-0.875h-1.24v1.896H701.632z"/>
</g>
<rect x="82.691" y="318.959" fill="none" width="634.4" height="14.948"/>
<rect x="82.691" y="333.907" fill="#E03C31" width="634.4" height="14.949"/>
<rect x="82.691" y="348.856" fill="#FFC72C" width="634.4" height="14.948"/>
</svg>
