<svg width="48" height="32" viewBox="0 0 48 32" fill="none" xmlns="http://www.w3.org/2000/svg">
<g clip-path="url(#clip0_572_21690)">
<rect x="0.5" y="0.5" width="47" height="31" rx="3.5" fill="#006FCF" stroke="#E1E0DF"/>
<path fill-rule="evenodd" clip-rule="evenodd" d="M9.81788 23.1152V16.5276H17.534L18.3619 17.5031L19.2171 16.5276H47.2248V22.6609C47.2248 22.6609 46.4923 23.1086 45.6452 23.1152H30.1368L29.2034 22.0767V23.1152H26.1448V21.3425C26.1448 21.3425 25.727 21.59 24.8237 21.59H23.7826V23.1152H19.1517L18.325 22.1187L17.4856 23.1152H9.81788ZM0.827637 11.5625L2.56371 7.89551H5.56607L6.55131 9.94961V7.89551H10.2835L10.87 9.38015L11.4386 7.89551H28.1924V8.64189C28.1924 8.64189 29.0731 7.89551 30.5205 7.89551L35.9565 7.91272L36.9247 9.93994V7.89551H40.048L40.9077 9.05998V7.89551H44.0596V14.4831H40.9077L40.0838 13.3149V14.4831H35.495L35.0335 13.4447H33.7999L33.346 14.4831H30.234C28.9885 14.4831 28.1924 13.752 28.1924 13.752V14.4831H23.5002L22.569 13.4447V14.4831H5.12128L4.66013 13.4447H3.43043L2.97254 14.4831H0.827637V11.5625ZM0.836591 13.6402L3.17817 8.70762H4.95339L7.29273 13.6402H5.73466L5.30485 12.6525H2.79313L2.36108 13.6402H0.836591ZM4.81012 11.5816L4.04451 9.85559L3.27667 11.5816H4.81012ZM7.45391 13.6394V8.70679L9.6203 8.71408L10.8803 11.8943L12.1102 8.70679H14.2593V13.6394H12.8982V10.0048L11.4554 13.6394H10.2618L8.81499 10.0048V13.6394H7.45391ZM15.1905 13.6394V8.70679H19.6319V9.81014H16.5659V10.6539H19.5603V11.6923H16.5659V12.5685H19.6319V13.6394H15.1905ZM20.4199 13.6402V8.70762H23.4488C24.4524 8.70762 25.3516 9.26989 25.3516 10.3079C25.3516 11.1952 24.5934 11.7668 23.8584 11.823L25.6493 13.6402H23.986L22.3541 11.8879H21.781V13.6402H20.4199ZM23.3368 9.81097H21.781V10.8494H23.357C23.6298 10.8494 23.9815 10.6579 23.9815 10.3302C23.9815 10.0755 23.7101 9.81097 23.3368 9.81097ZM27.2969 13.6394H25.9072V8.70679H27.2969V13.6394ZM30.5922 13.6394H30.2922C28.8408 13.6394 27.9596 12.6034 27.9596 11.1934C27.9596 9.74852 28.8309 8.70679 30.6638 8.70679H32.1681V9.87504H30.6088C29.8647 9.87504 29.3385 10.4011 29.3385 11.2055C29.3385 12.1608 29.9402 12.562 30.8071 12.562H31.1652L30.5922 13.6394ZM31.2122 13.6402L33.5538 8.70762H35.329L37.6684 13.6402H36.1103L35.6805 12.6525H33.1688L32.7367 13.6402H31.2122ZM35.1858 11.5816L34.4202 9.85559L33.6523 11.5816H35.1858ZM37.8273 13.6394V8.70679H39.5578L41.7673 11.8059V8.70679H43.1283V13.6394H41.4539L39.1884 10.4592V13.6394H37.8273ZM10.7491 22.2715V17.3388H15.1905V18.4422H12.1245V19.2859H15.1189V20.3244H12.1245V21.2006H15.1905V22.2715H10.7491ZM32.512 22.2715V17.3388H36.9534V18.4422H33.8874V19.2859H36.8674V20.3244H33.8874V21.2006H36.9534V22.2715H32.512ZM15.3629 22.2715L17.5254 19.8356L15.3114 17.3388H17.0262L18.3447 18.8823L19.6678 17.3388H21.3154L19.1305 19.8051L21.297 22.2715H19.5825L18.3022 20.7523L17.0531 22.2715H15.3629ZM21.4586 22.2723V17.3397H24.4651C25.6987 17.3397 26.4194 18.06 26.4194 18.9988C26.4194 20.1319 25.5005 20.7146 24.2882 20.7146H22.8555V22.2723H21.4586ZM24.3643 18.4552H22.8555V19.591H24.3599C24.7574 19.591 25.0359 19.3523 25.0359 19.0231C25.0359 18.6727 24.756 18.4552 24.3643 18.4552ZM27.0104 22.2715V17.3388H30.0392C31.0428 17.3388 31.942 17.9011 31.942 18.9391C31.942 19.8264 31.1839 20.398 30.4489 20.4542L32.2398 22.2715H30.5765L28.9445 20.5191H28.3715V22.2715H27.0104ZM29.9273 18.4422H28.3715V19.4806H29.9474C30.2202 19.4806 30.572 19.2891 30.572 18.9614C30.572 18.7067 30.3005 18.4422 29.9273 18.4422ZM37.5838 22.2715V21.2006H40.3077C40.7108 21.2006 40.8853 21.0032 40.8853 20.7868C40.8853 20.5794 40.7113 20.3698 40.3077 20.3698H39.0768C38.0068 20.3698 37.4109 19.7792 37.4109 18.8925C37.4109 18.1016 37.9566 17.3388 39.5466 17.3388H42.1971L41.624 18.4487H39.3317C38.8935 18.4487 38.7586 18.657 38.7586 18.8559C38.7586 19.0604 38.9253 19.2859 39.26 19.2859H40.5495C41.7422 19.2859 42.2598 19.8989 42.2598 20.7016C42.2598 21.5646 41.683 22.2715 40.4845 22.2715H37.5838ZM42.3798 22.2715V21.2006H45.1037C45.5067 21.2006 45.6813 21.0032 45.6813 20.7868C45.6813 20.5794 45.5073 20.3698 45.1037 20.3698H43.8728C42.8028 20.3698 42.2069 19.7792 42.2069 18.8925C42.2069 18.1016 42.7526 17.3388 44.3426 17.3388H46.9931L46.42 18.4487H44.1277C43.6895 18.4487 43.5546 18.657 43.5546 18.8559C43.5546 19.0604 43.7213 19.2859 44.056 19.2859H45.3455C46.5382 19.2859 47.0558 19.8989 47.0558 20.7016C47.0558 21.5646 46.479 22.2715 45.2805 22.2715H42.3798Z" fill="white"/>
</g>
<defs>
<clipPath id="clip0_572_21690">
<rect width="48" height="32" fill="white"/>
</clipPath>
</defs>
</svg>
