<svg width="48" height="32" viewBox="0 0 48 32" fill="none" xmlns="http://www.w3.org/2000/svg">
<g clip-path="url(#clip0_548_46088)">
<rect x="0.5" y="0.5" width="47" height="31" rx="3.5" fill="url(#paint0_linear_548_46088)" stroke="#E1E0DF"/>
<path d="M15.8993 8C21.1978 8 24.5617 10.8015 24.7828 15.1392V15.1465H16.1757V16.0389H24.7828C24.5775 20.3838 21.2373 23.2 15.8993 23.2C10.5692 23.2 7 20.3473 7 15.6C7 10.999 10.4271 8 15.8993 8Z" fill="white"/>
<path d="M40.931 11.7817C40.931 11.3355 40.8363 10.8893 40.6468 10.4577C40.4651 10.0481 40.1888 9.68238 39.8334 9.36785C39.4386 9.01674 39.0122 8.77535 38.5384 8.63637C38.0725 8.49739 37.4329 8.43156 36.6196 8.43156H25.762V15.1465H36.6275C37.4329 15.1465 38.0725 15.0806 38.5463 14.9417C39.0122 14.8027 39.4465 14.5613 39.8413 14.2102C40.1967 13.8957 40.4651 13.5299 40.6547 13.1203C40.8363 12.6741 40.931 12.2279 40.931 11.7817Z" fill="white"/>
<path d="M40.931 19.3963C40.931 18.9428 40.8363 18.5039 40.6468 18.0724C40.4651 17.6627 40.1888 17.297 39.8334 16.9825C39.4386 16.6314 39.0122 16.39 38.5384 16.251C38.0725 16.112 37.4329 16.0389 36.6196 16.0389H25.762V22.7684H36.6275C37.4329 22.7684 38.0725 22.6953 38.5463 22.5563C39.0122 22.4173 39.4465 22.1759 39.8413 21.8248C40.1967 21.5103 40.4651 21.1446 40.6547 20.7276C40.8363 20.2887 40.931 19.8498 40.931 19.3963Z" fill="white"/>
</g>
<defs>
<linearGradient id="paint0_linear_548_46088" x1="0" y1="0" x2="49.2004" y2="30.0336" gradientUnits="userSpaceOnUse">
<stop stop-color="#2B307A"/>
<stop offset="0.2" stop-color="#0A67AD"/>
<stop offset="0.505" stop-color="#BEC2D3"/>
<stop offset="0.696013" stop-color="#D14A42"/>
<stop offset="1" stop-color="#CC191B"/>
</linearGradient>
<clipPath id="clip0_548_46088">
<rect width="48" height="32" fill="white"/>
</clipPath>
</defs>
</svg>
