<svg width="48" height="32" viewBox="0 0 48 32" fill="none" xmlns="http://www.w3.org/2000/svg">
<g clip-path="url(#clip0_572_21635)">
<rect x="0.5" y="0.5" width="47" height="31" rx="3.5" fill="white" stroke="#E1E0DF"/>
<path fill-rule="evenodd" clip-rule="evenodd" d="M17.5853 24.7124V25.8939V27.0754H17.0496V26.7885C16.8797 27.0012 16.6219 27.1348 16.2715 27.1348C15.5806 27.1348 15.039 26.6159 15.039 25.8939C15.039 25.1724 15.5806 24.6529 16.2715 24.6529C16.6219 24.6529 16.8797 24.7865 17.0496 24.9992V24.7124H17.5853ZM16.3382 25.1373C15.8744 25.1373 15.5907 25.4785 15.5907 25.8939C15.5907 26.3092 15.8744 26.6504 16.3382 26.6504C16.7812 26.6504 17.0803 26.3239 17.0803 25.8939C17.0803 25.4638 16.7812 25.1373 16.3382 25.1373ZM35.6879 25.8939C35.6879 25.4785 35.9716 25.1373 36.4353 25.1373C36.879 25.1373 37.1775 25.4638 37.1775 25.8939C37.1775 26.3239 36.879 26.6504 36.4353 26.6504C35.9716 26.6504 35.6879 26.3092 35.6879 25.8939ZM37.6831 23.7634V25.8939V27.0754H37.1468V26.7885C36.9769 27.0012 36.7191 27.1348 36.3687 27.1348C35.6778 27.1348 35.1362 26.6159 35.1362 25.8939C35.1362 25.1724 35.6778 24.6529 36.3687 24.6529C36.7191 24.6529 36.9769 24.7865 37.1468 24.9992V23.7634H37.6831ZM24.2348 25.113C24.58 25.113 24.8018 25.3207 24.8584 25.6862H23.58C23.6372 25.345 23.8531 25.113 24.2348 25.113ZM23.0183 25.8939C23.0183 25.1571 23.5233 24.6529 24.2455 24.6529C24.9357 24.6529 25.4101 25.1571 25.4154 25.8939C25.4154 25.9629 25.4101 26.0274 25.4047 26.0913H23.5753C23.6525 26.5169 23.967 26.6702 24.3121 26.6702C24.5593 26.6702 24.8225 26.5808 25.0289 26.4229L25.2915 26.8037C24.9924 27.0459 24.6525 27.1348 24.2815 27.1348C23.544 27.1348 23.0183 26.6453 23.0183 25.8939ZM30.7139 25.8939C30.7139 25.4785 30.9976 25.1373 31.4613 25.1373C31.9044 25.1373 32.2035 25.4638 32.2035 25.8939C32.2035 26.3239 31.9044 26.6504 31.4613 26.6504C30.9976 26.6504 30.7139 26.3092 30.7139 25.8939ZM32.7085 24.7124V25.8939V27.0754H32.1728V26.7885C32.0023 27.0012 31.7451 27.1348 31.3947 27.1348C30.7038 27.1348 30.1622 26.6159 30.1622 25.8939C30.1622 25.1724 30.7038 24.6529 31.3947 24.6529C31.7451 24.6529 32.0023 24.7865 32.1728 24.9992V24.7124H32.7085ZM27.6885 25.8939C27.6885 26.6108 28.2089 27.1348 29.0029 27.1348C29.374 27.1348 29.6212 27.0555 29.8891 26.853L29.6319 26.4376C29.4307 26.5763 29.2195 26.6504 28.987 26.6504C28.5593 26.6453 28.2448 26.3488 28.2448 25.8939C28.2448 25.4389 28.5593 25.1424 28.987 25.1373C29.2195 25.1373 29.4307 25.2114 29.6319 25.3501L29.8891 24.9347C29.6212 24.7322 29.374 24.6529 29.0029 24.6529C28.2089 24.6529 27.6885 25.1769 27.6885 25.8939ZM33.9457 24.9992C34.0849 24.7916 34.2861 24.6529 34.5952 24.6529C34.7038 24.6529 34.8584 24.6728 34.9769 24.7175L34.8118 25.2018C34.6985 25.1571 34.5852 25.1424 34.4767 25.1424C34.1262 25.1424 33.951 25.3597 33.951 25.7507V27.0754H33.4147V24.7124H33.9457V24.9992ZM20.2349 24.9002C19.9771 24.7373 19.6219 24.6529 19.2302 24.6529C18.606 24.6529 18.2042 24.9398 18.2042 25.4095C18.2042 25.7948 18.5033 26.0325 19.0544 26.1066L19.3075 26.1411C19.6013 26.1807 19.7399 26.2549 19.7399 26.3884C19.7399 26.5712 19.544 26.6753 19.1782 26.6753C18.8072 26.6753 18.5393 26.5616 18.3588 26.428L18.1063 26.8281C18.4001 27.0357 18.7712 27.1348 19.1729 27.1348C19.8844 27.1348 20.2968 26.8134 20.2968 26.3635C20.2968 25.9482 19.9723 25.7309 19.4361 25.6568L19.1836 25.6217C18.9517 25.5923 18.7659 25.5481 18.7659 25.3897C18.7659 25.2165 18.9411 25.113 19.2349 25.113C19.5493 25.113 19.8538 25.2267 20.003 25.3156L20.2349 24.9002ZM26.498 24.9992C26.6366 24.7916 26.8378 24.6529 27.1469 24.6529C27.2555 24.6529 27.41 24.6728 27.5286 24.7175L27.3634 25.2018C27.2502 25.1571 27.1369 25.1424 27.0283 25.1424C26.6779 25.1424 26.5027 25.3597 26.5027 25.7507V27.0754H25.967V24.7124H26.498V24.9992ZM22.5753 24.7124H21.6992V23.9954H21.1576V24.7124H20.6579V25.182H21.1576V26.26C21.1576 26.8083 21.3794 27.1348 22.013 27.1348C22.2455 27.1348 22.5133 27.0657 22.6832 26.952L22.5287 26.5118C22.3688 26.6006 22.1936 26.6453 22.0543 26.6453C21.7865 26.6453 21.6992 26.4869 21.6992 26.2498V25.182H22.5753V24.7124ZM14.5653 25.5923V27.0754H14.0237V25.7603C14.0237 25.3597 13.8485 25.1373 13.4827 25.1373C13.127 25.1373 12.8798 25.3552 12.8798 25.7654V27.0754H12.3382V25.7603C12.3382 25.3597 12.1582 25.1373 11.8025 25.1373C11.4361 25.1373 11.199 25.3552 11.199 25.7654V27.0754H10.658V24.7124H11.1942V25.0038C11.3954 24.7271 11.6526 24.6529 11.9158 24.6529C12.2922 24.6529 12.56 24.8114 12.7299 25.0734C12.9571 24.7418 13.2815 24.6479 13.596 24.6529C14.1942 24.658 14.5653 25.0338 14.5653 25.5923Z" fill="#231F20"/>
<path d="M28.1765 20.6972H20.0574V6.70264H28.1765V20.6972Z" fill="#FF5F00"/>
<path d="M20.5725 13.6998C20.5725 10.861 21.9583 8.33219 24.1164 6.70254C22.5382 5.51086 20.5465 4.79959 18.3819 4.79959C13.2575 4.79959 9.10352 8.78431 9.10352 13.6998C9.10352 18.6154 13.2575 22.6001 18.3819 22.6001C20.5465 22.6001 22.5382 21.8888 24.1164 20.6971C21.9583 19.0675 20.5725 16.5387 20.5725 13.6998Z" fill="#EB001B"/>
<path d="M39.1299 13.6998C39.1299 18.6154 34.976 22.6001 29.8515 22.6001C27.6869 22.6001 25.6952 21.8888 24.1165 20.6971C26.2751 19.0675 27.661 16.5387 27.661 13.6998C27.661 10.861 26.2751 8.33219 24.1165 6.70254C25.6952 5.51086 27.6869 4.79959 29.8515 4.79959C34.976 4.79959 39.1299 8.78431 39.1299 13.6998Z" fill="#F79E1B"/>
</g>
<defs>
<clipPath id="clip0_572_21635">
<rect width="48" height="32" fill="white"/>
</clipPath>
</defs>
</svg>
