<svg width="48" height="32" viewBox="0 0 48 32" fill="none" xmlns="http://www.w3.org/2000/svg">
<g clip-path="url(#clip0_572_21774)">
<rect x="0.5" y="0.5" width="47" height="31" rx="3.5" fill="white" stroke="#E1E0DF"/>
<path fill-rule="evenodd" clip-rule="evenodd" d="M21.8803 16.2048L22.0893 14.9181L21.6237 14.9076H19.4009L20.9457 5.41194C20.9505 5.38319 20.9661 5.3565 20.9888 5.33751C21.0116 5.31852 21.0407 5.30811 21.0712 5.30811H24.8193C26.0637 5.30811 26.9224 5.55908 27.3706 6.05451C27.5808 6.28693 27.7147 6.52987 27.7795 6.79712C27.8474 7.07761 27.8486 7.41267 27.7823 7.82141L27.7775 7.85114V8.11307L27.9877 8.22852C28.1646 8.31956 28.3053 8.42372 28.4132 8.54297C28.593 8.74175 28.7093 8.99435 28.7584 9.29372C28.8092 9.60166 28.7924 9.96819 28.7093 10.3831C28.6134 10.8603 28.4583 11.276 28.2489 11.6161C28.0564 11.9294 27.8111 12.1894 27.5197 12.3908C27.2416 12.5822 26.9112 12.7275 26.5376 12.8205C26.1755 12.9118 25.7627 12.9579 25.31 12.9579H25.0183C24.8097 12.9579 24.6072 13.0307 24.4481 13.1613C24.2886 13.2945 24.1832 13.4766 24.1508 13.6757L24.1288 13.7916L23.7595 16.0597L23.7429 16.1429C23.7384 16.1693 23.7308 16.1824 23.7196 16.1913C23.7096 16.1994 23.6953 16.2048 23.6813 16.2048H21.8803Z" fill="#28356A"/>
<path fill-rule="evenodd" clip-rule="evenodd" d="M28.1866 7.88135C28.1755 7.95068 28.1626 8.02154 28.1483 8.09434C27.654 10.5546 25.9629 11.4045 23.8032 11.4045H22.7035C22.4394 11.4045 22.2167 11.5904 22.1757 11.843L21.4532 16.2857C21.4264 16.4516 21.5583 16.601 21.7309 16.601H23.6813C23.9122 16.601 24.1084 16.4384 24.1448 16.2176L24.1639 16.1216L24.5312 13.8624L24.5548 13.7385C24.5907 13.5169 24.7874 13.3541 25.0183 13.3541H25.3099C27.1996 13.3541 28.6789 12.6104 29.1113 10.4581C29.2919 9.55906 29.1984 8.80831 28.7205 8.28032C28.5759 8.12114 28.3964 7.98898 28.1866 7.88135Z" fill="#298FC2"/>
<path fill-rule="evenodd" clip-rule="evenodd" d="M27.6697 7.68175C27.5942 7.66037 27.5163 7.64106 27.4363 7.62359C27.356 7.60655 27.2737 7.59147 27.189 7.57823C26.8925 7.53179 26.5676 7.50977 26.2196 7.50977H23.2818C23.2094 7.50977 23.1407 7.52561 23.0793 7.55425C22.9437 7.6174 22.8431 7.74175 22.8187 7.89398L22.1937 11.7314L22.1758 11.8432C22.2169 11.5906 22.4395 11.4048 22.7036 11.4048H23.8033C25.9631 11.4048 27.6542 10.5544 28.1484 8.09461C28.1632 8.0218 28.1756 7.95095 28.1867 7.88161C28.0617 7.81727 27.9263 7.76226 27.7804 7.71538C27.7444 7.70377 27.7072 7.6926 27.6697 7.68175Z" fill="#22284F"/>
<path fill-rule="evenodd" clip-rule="evenodd" d="M22.8187 7.894C22.8431 7.74176 22.9437 7.61742 23.0793 7.5547C23.1411 7.52595 23.2094 7.5101 23.2818 7.5101H26.2196C26.5676 7.5101 26.8925 7.53224 27.189 7.57868C27.2737 7.59181 27.356 7.607 27.4363 7.62403C27.5163 7.6414 27.5942 7.66082 27.6697 7.68208C27.7072 7.69293 27.7444 7.70422 27.7807 7.7154C27.9266 7.76227 28.0621 7.81772 28.1871 7.88163C28.3342 6.97246 28.1859 6.35344 27.6789 5.7929C27.1198 5.17572 26.1109 4.91162 24.8198 4.91162H21.0716C20.8079 4.91162 20.5829 5.09749 20.5422 5.35052L18.981 14.9438C18.9503 15.1336 19.1013 15.3048 19.2987 15.3048H21.6127L22.8187 7.894Z" fill="#28356A"/>
<path fill-rule="evenodd" clip-rule="evenodd" d="M10.8368 18.8169H8.10403C7.917 18.8169 7.75796 18.9486 7.72874 19.1277L6.62346 25.9209C6.60153 26.0551 6.70864 26.1758 6.84889 26.1758H8.15351C8.34054 26.1758 8.49958 26.0442 8.5288 25.8648L8.82686 24.0325C8.85562 23.8532 9.01501 23.7214 9.2017 23.7214H10.0668C11.8669 23.7214 12.9058 22.8769 13.1772 21.2036C13.2995 20.4714 13.1824 19.8962 12.8287 19.4933C12.4403 19.0509 11.7514 18.8169 10.8368 18.8169ZM11.152 21.2981C11.0026 22.2487 10.2534 22.2487 9.52898 22.2487H9.11652L9.40586 20.4733C9.42309 20.366 9.5189 20.287 9.63083 20.287H9.81987C10.3134 20.287 10.7789 20.287 11.0194 20.5597C11.1629 20.7224 11.2068 20.9641 11.152 21.2981Z" fill="#28356A"/>
<path fill-rule="evenodd" clip-rule="evenodd" d="M19.0756 21.216H17.767C17.6555 21.216 17.5591 21.295 17.542 21.4023L17.484 21.7572L17.3926 21.6286C17.1093 21.2299 16.4775 21.0967 15.847 21.0967C14.4008 21.0967 13.1656 22.1585 12.9251 23.648C12.8001 24.3909 12.9778 25.1014 13.4127 25.5968C13.8115 26.0523 14.3821 26.2422 15.0609 26.2422C16.2262 26.2422 16.8722 25.5159 16.8722 25.5159L16.8139 25.8684C16.792 26.0032 16.8991 26.1241 17.0385 26.1241H18.2172C18.4047 26.1241 18.563 25.9923 18.5925 25.813L19.2998 21.4709C19.3222 21.3372 19.2154 21.216 19.0756 21.216ZM17.2514 23.6852C17.1252 24.4099 16.5319 24.8964 15.775 24.8964C15.395 24.8964 15.0914 24.7783 14.8963 24.5544C14.7029 24.3321 14.6294 24.0156 14.6909 23.663C14.8088 22.9445 15.4121 22.442 16.1575 22.442C16.5291 22.442 16.8311 22.5618 17.0302 22.7875C17.2295 23.0157 17.3086 23.3342 17.2514 23.6852Z" fill="#28356A"/>
<path fill-rule="evenodd" clip-rule="evenodd" d="M25.9444 21.3247H24.6293C24.5038 21.3247 24.3859 21.3851 24.3149 21.4863L22.5011 24.0762L21.7323 21.5873C21.6839 21.4316 21.5357 21.3247 21.3678 21.3247H20.0756C19.9185 21.3247 19.8095 21.4735 19.8594 21.6168L21.308 25.7376L19.9461 27.6013C19.839 27.7481 19.9469 27.9499 20.1319 27.9499H21.4454C21.5701 27.9499 21.6867 27.891 21.7575 27.7919L26.1313 21.6714C26.2361 21.525 26.1285 21.3247 25.9444 21.3247Z" fill="#28356A"/>
<path fill-rule="evenodd" clip-rule="evenodd" d="M30.3284 18.8169H27.5953C27.4087 18.8169 27.2497 18.9486 27.2204 19.1277L26.1152 25.9209C26.0932 26.0551 26.2003 26.1758 26.3398 26.1758H27.7424C27.8725 26.1758 27.984 26.0837 28.0044 25.9582L28.3181 24.0325C28.3469 23.8532 28.5064 23.7214 28.693 23.7214H29.5577C31.3582 23.7214 32.3967 22.8769 32.6685 21.2036C32.7912 20.4714 32.6733 19.8962 32.3196 19.4933C31.9316 19.0509 31.2431 18.8169 30.3284 18.8169ZM30.6437 21.2981C30.4946 22.2487 29.7454 22.2487 29.0206 22.2487H28.6087L28.8983 20.4733C28.9155 20.366 29.0106 20.287 29.1229 20.287H29.3119C29.8049 20.287 30.2709 20.287 30.5114 20.5597C30.6549 20.7224 30.6985 20.9641 30.6437 21.2981Z" fill="#298FC2"/>
<path fill-rule="evenodd" clip-rule="evenodd" d="M38.5653 21.216H37.2574C37.1452 21.216 37.0497 21.295 37.0329 21.4023L36.9749 21.7572L36.883 21.6286C36.5998 21.2299 35.9684 21.0967 35.3378 21.0967C33.8917 21.0967 32.657 22.1585 32.4165 23.648C32.2918 24.3909 32.4688 25.1014 32.9035 25.5968C33.3032 26.0523 33.8729 26.2422 34.5518 26.2422C35.717 26.2422 36.3631 25.5159 36.3631 25.5159L36.3048 25.8684C36.2829 26.0032 36.3899 26.1241 36.5303 26.1241H37.7086C37.8952 26.1241 38.0543 25.9923 38.0835 25.813L38.7911 21.4709C38.8127 21.3372 38.7056 21.216 38.5653 21.216ZM36.7412 23.6852C36.6158 24.4099 36.0215 24.8964 35.2647 24.8964C34.8855 24.8964 34.581 24.7783 34.386 24.5544C34.1927 24.3321 34.1199 24.0156 34.1806 23.663C34.2993 22.9445 34.9018 22.442 35.6472 22.442C36.0188 22.442 36.3208 22.5618 36.5198 22.7875C36.72 23.0157 36.7991 23.3342 36.7412 23.6852Z" fill="#298FC2"/>
<path fill-rule="evenodd" clip-rule="evenodd" d="M39.9992 19.0036L38.8776 25.9213C38.8557 26.0554 38.9627 26.1762 39.1021 26.1762H40.2298C40.4173 26.1762 40.5762 26.0445 40.605 25.8652L41.711 19.0722C41.7331 18.9381 41.626 18.8169 41.4865 18.8169H40.2239C40.1124 18.8172 40.0165 18.8963 39.9992 19.0036Z" fill="#298FC2"/>
</g>
<defs>
<clipPath id="clip0_572_21774">
<rect width="48" height="32" fill="white"/>
</clipPath>
</defs>
</svg>
