<svg width="48" height="32" viewBox="0 0 48 32" fill="none" xmlns="http://www.w3.org/2000/svg">
<g clip-path="url(#clip0_572_21488)">
<rect x="0.5" y="0.5" width="47" height="31" rx="3.5" fill="white" stroke="#E1E0DF"/>
<path d="M21.3117 21.9467H18.116L20.1148 10.7461H23.3103L21.3117 21.9467Z" fill="#15195A"/>
<path d="M32.8966 11.0198C32.2662 10.7932 31.2665 10.543 30.0303 10.543C26.8744 10.543 24.6521 12.0681 24.6384 14.2485C24.6122 15.8572 26.2296 16.7508 27.4392 17.2872C28.6756 17.8353 29.0959 18.193 29.0959 18.6816C29.0833 19.432 28.0968 19.7778 27.1767 19.7778C25.9008 19.7778 25.2172 19.5995 24.1783 19.1821L23.7575 19.0031L23.3103 21.5174C24.0598 21.8268 25.4407 22.1015 26.8744 22.1135C30.2276 22.1135 32.4106 20.612 32.4364 18.2884C32.4492 17.0133 31.5952 16.0364 29.754 15.238C28.6363 14.7255 27.9517 14.38 27.9517 13.8556C27.9649 13.3789 28.5307 12.8906 29.7924 12.8906C30.8313 12.8667 31.5947 13.093 32.1729 13.3195L32.462 13.4384L32.8966 11.0198Z" fill="#15195A"/>
<path fill-rule="evenodd" clip-rule="evenodd" d="M38.6166 10.7461H41.0885L43.6666 21.9465H40.7077C40.7077 21.9465 40.4181 20.6596 40.3264 20.2664H36.2233C36.1047 20.5641 35.5526 21.9465 35.5526 21.9465H32.1995L36.9463 11.6754C37.2752 10.9485 37.8543 10.7461 38.6166 10.7461ZM38.4196 14.8449C38.4196 14.8449 37.4069 17.3352 37.1438 17.9787H39.8C39.6686 17.4187 39.0634 14.7377 39.0634 14.7377L38.8401 13.7725C38.746 14.0211 38.61 14.3628 38.5183 14.5932C38.4561 14.7494 38.4143 14.8545 38.4196 14.8449Z" fill="#15195A"/>
<path fill-rule="evenodd" clip-rule="evenodd" d="M4.2694 10.7461H9.41099C10.1079 10.7697 10.6734 10.9722 10.8574 11.6876L11.9748 16.8338C11.9749 16.8342 11.975 16.8345 11.9751 16.8348L12.3171 18.3838L15.4468 10.7461H18.826L13.8029 21.9348H10.4235L7.57517 12.2025C6.59241 11.6818 5.47081 11.263 4.2168 10.9724L4.2694 10.7461Z" fill="#15195A"/>
</g>
<defs>
<clipPath id="clip0_572_21488">
<rect width="48" height="32" fill="white"/>
</clipPath>
</defs>
</svg>
